<?xml version="1.0" encoding="utf-8"?>
<!-- Generator: Adobe Illustrator 20.1.0, SVG Export Plug-In . SVG Version: 6.00 Build 0)  -->
<svg version="1.1" id="Layer_1" xmlns="http://www.w3.org/2000/svg" xmlns:xlink="http://www.w3.org/1999/xlink" x="0px" y="0px"
	 viewBox="0 0 12 12" style="enable-background:new 0 0 12 12;" xml:space="preserve">
<style type="text/css">
	.st0{fill:#010101;}
</style>
<path class="st0" d="M6,1c2.7,0,5,2.2,5,5s-2.2,5-5,5S1,8.7,1,6S3.3,1,6,1 M6,0C2.7,0,0,2.7,0,6c0,3.3,2.7,6,6,6c3.3,0,6-2.7,6-6
	C12,2.7,9.3,0,6,0z"/>
<path class="st0" d="M6,4.7c0.7,0,1.3,0.6,1.3,1.3c0,0.7-0.6,1.3-1.3,1.3C5.3,7.3,4.7,6.7,4.7,6C4.7,5.3,5.3,4.7,6,4.7 M6,3.7
	C4.7,3.7,3.7,4.7,3.7,6S4.7,8.3,6,8.3S8.3,7.3,8.3,6S7.3,3.7,6,3.7z"/>
</svg>
